<svg width="242" height="242" viewBox="0 0 242 242" fill="none" xmlns="http://www.w3.org/2000/svg">
<path d="M158.19 42.1323C158.19 42.1323 130.566 77.1233 86.3672 56.2518C42.1687 35.3802 -2.02992 91.8561 36.03 126.233C74.09 160.609 36.8454 179.499 62.7018 200.567C92.0893 224.513 117.675 175.956 141.002 187.006C192.485 211.393 230.626 201.739 222.032 173.501C206.946 123.933 187.656 120.708 202.388 94.9254C217.121 69.1425 184.606 15.5348 158.19 42.1323Z" fill="#DEE9FF"/>
<path d="M121.96 116.925V190.336L64.9629 165.717L65.2348 92.5719L121.96 116.925Z" fill="#0060A5"/>
<path d="M121.961 116.969V190.38L178.681 166.611V92.8061L121.961 116.969Z" fill="#A2BDFF"/>
<path d="M121.96 116.925L178.957 93.0519L122.408 67.985L64.9629 92.4551L121.96 116.925Z" fill="#0060A5"/>
<path d="M49.3979 105.551L106.758 133.393C106.912 133.468 107.087 133.49 107.255 133.456C107.423 133.422 107.575 133.334 107.688 133.205L121.96 116.925L64.9629 92.455L49.2702 104.221C49.1629 104.302 49.0781 104.408 49.0239 104.531C48.9698 104.654 48.948 104.788 48.9609 104.922C48.9737 105.055 49.0206 105.183 49.0971 105.293C49.1737 105.403 49.2772 105.492 49.3979 105.551V105.551Z" fill="#699CFF"/>
<path d="M178.957 93.0518L194.787 107.363C194.884 107.451 194.957 107.561 195 107.683C195.044 107.806 195.055 107.938 195.035 108.066C195.015 108.195 194.962 108.317 194.883 108.42C194.804 108.523 194.7 108.605 194.581 108.658L137.928 133.942C137.777 134.01 137.608 134.028 137.446 133.993C137.284 133.958 137.137 133.873 137.027 133.75L121.96 116.925L178.957 93.0518Z" fill="#699CFF"/>
<path d="M122.407 67.985L179.116 93.0518L187.271 91.1616C187.432 91.1244 187.576 91.0376 187.684 90.9135C187.792 90.7894 187.859 90.6343 187.873 90.4704C187.888 90.3064 187.851 90.142 187.767 90.0004C187.683 89.8589 187.557 89.7474 187.406 89.682L135.624 67.2451C135.511 67.196 135.388 67.1744 135.264 67.1821L122.407 67.985Z" fill="#699CFF"/>
<path d="M122.408 67.9849L66.0173 92.5718L58.8888 91.3739C58.7238 91.3431 58.573 91.26 58.4589 91.1369C58.3447 91.0138 58.2731 90.8573 58.2548 90.6904C58.2365 90.5235 58.2723 90.3552 58.3571 90.2102C58.4418 90.0653 58.5709 89.9515 58.7254 89.8856L111.787 67.0182C111.904 66.9683 112.032 66.9478 112.159 66.9585L122.408 67.9849Z" fill="#699CFF"/>
<path d="M181.18 178.933C188.956 178.933 195.259 172.63 195.259 164.855C195.259 157.079 188.956 150.776 181.18 150.776C173.405 150.776 167.102 157.079 167.102 164.855C167.102 172.63 173.405 178.933 181.18 178.933Z" fill="#418DF9" stroke="white" stroke-width="15" stroke-miterlimit="10"/>
<path d="M185.655 160.682C185.422 159.874 185.097 159.217 184.678 158.717C184.273 158.228 183.748 157.853 183.154 157.629C181.873 157.187 180.481 157.187 179.2 157.629C178.607 157.852 178.084 158.227 177.682 158.717C177.258 159.217 176.932 159.874 176.705 160.682C176.479 161.491 176.362 162.479 176.362 163.642V166.015C176.362 167.178 176.478 168.167 176.711 168.981C176.894 169.704 177.229 170.38 177.694 170.964C178.098 171.457 178.623 171.838 179.217 172.069C180.492 172.526 181.886 172.526 183.16 172.069C183.752 171.838 184.273 171.457 184.673 170.964C185.131 170.377 185.462 169.702 185.644 168.981C185.871 168.167 185.987 167.178 185.987 166.015H185.999V163.642C185.998 162.479 185.882 161.491 185.655 160.682ZM183.532 166.369C183.541 167.003 183.49 167.635 183.381 168.259C183.308 168.703 183.156 169.13 182.934 169.521C182.762 169.823 182.508 170.069 182.201 170.231C181.886 170.383 181.539 170.458 181.189 170.452C180.839 170.457 180.493 170.381 180.177 170.231C179.866 170.068 179.607 169.823 179.427 169.521C179.2 169.131 179.042 168.704 178.962 168.259C178.843 167.637 178.788 167.003 178.799 166.369V163.264C178.789 162.632 178.842 162.001 178.956 161.38C179.033 160.944 179.189 160.526 179.416 160.147C179.596 159.857 179.854 159.623 180.16 159.472C180.478 159.334 180.82 159.263 181.166 159.263C181.513 159.263 181.855 159.334 182.172 159.472C182.481 159.62 182.74 159.854 182.917 160.147C183.144 160.526 183.3 160.944 183.377 161.38C183.492 162.001 183.544 162.632 183.534 163.264V166.369H183.532Z" fill="white"/>
</svg>
